<svg width="131" height="32" viewBox="0 0 131 32" fill="none" xmlns="http://www.w3.org/2000/svg">
<g clip-path="url(#clip0_155_8342)">
<path fill-rule="evenodd" clip-rule="evenodd" d="M17.4813 17.981H1.31978V16.497H2.90039V9.51489H0.305054L9.51533 0.553455L18.4768 9.51489H15.9012V16.497H17.4813V17.981ZM16.4864 8.69019H15.6597L9.40063 2.43107L3.14152 8.69019H2.33467L9.50779 1.71154L16.4864 8.69019Z" fill="#DF146D"/>
<path d="M12.2129 11.4714H9.76135V9.01994H12.2129V11.4714Z" fill="#FFFFF8"/>
<path d="M12.2129 14.6025H9.76135V12.151H12.2129V14.6025Z" fill="#FFFFF8"/>
<path d="M9.02083 11.4714H6.56934V9.01994H9.02083V11.4714Z" fill="#FFFFF8"/>
<path d="M9.02083 14.6025H6.56934V12.151H9.02083V14.6025Z" fill="#FFFFF8"/>
<path fill-rule="evenodd" clip-rule="evenodd" d="M96.225 21.1848H89.3781C89.3995 20.2018 89.7222 19.4104 90.3449 18.8095C90.9672 18.2091 91.8133 17.9086 92.8833 17.9086C93.9529 17.9086 94.7724 18.1928 95.3399 18.7607C95.9079 19.3286 96.2024 20.1363 96.225 21.1848ZM101.041 24.2967C101.127 23.4891 101.172 22.7573 101.172 22.102C101.172 19.8744 100.407 18.0618 98.8781 16.6636C97.3493 15.2662 95.3618 14.5673 92.9158 14.5673C90.3389 14.5673 88.2752 15.3154 86.7246 16.8113C85.1736 18.3075 84.3985 20.3443 84.3985 22.9208C84.3985 25.5417 85.1736 27.5944 86.7246 29.0799C88.2752 30.565 90.3937 31.3071 93.0797 31.3071C95.1764 31.3071 96.9509 30.821 98.4034 29.8494C99.8552 28.8779 100.701 27.6166 100.942 26.066H96.0285C95.5912 27.0483 94.6085 27.54 93.0797 27.54C91.9661 27.54 91.0819 27.2562 90.4266 26.6883C89.7714 26.1208 89.4217 25.3234 89.3781 24.2967H101.041ZM58.4543 25.9017C57.7987 26.6883 56.87 27.0812 55.6694 27.0812C54.5336 27.0812 53.622 26.6934 52.9338 25.9179C52.246 25.1432 51.9019 24.1443 51.9019 22.9207C51.9019 21.698 52.246 20.7046 52.9338 19.9398C53.622 19.1754 54.5336 18.7928 55.6694 18.7928C56.87 18.7928 57.7987 19.1857 58.4543 19.9723C59.1091 20.7586 59.4366 21.7416 59.4366 22.9207C59.4366 24.1221 59.1091 25.1158 58.4543 25.9017ZM48.79 28.9155C50.1215 30.4665 51.9348 31.2412 54.228 31.2412C55.3198 31.2412 56.3191 30.9955 57.2256 30.5042C58.1316 30.0129 58.8032 29.3739 59.2401 28.5881V30.8154H64.2197V15.0257H59.2401V17.2859C58.8032 16.4564 58.1479 15.8012 57.2744 15.3206C56.4009 14.8404 55.4075 14.5998 54.2935 14.5998C52.044 14.5998 50.2314 15.3861 48.8555 16.9585C47.4799 18.5309 46.7913 20.5184 46.7913 22.9207C46.7913 25.3671 47.4577 27.3653 48.79 28.9155ZM30.3792 26.9171C31.0781 26.9171 31.6567 26.8841 32.1155 26.8186V30.8152C31.1539 30.9902 30.0403 31.0775 28.7738 31.0775C28.2059 31.0775 27.7039 31.0446 27.2673 30.9791C26.8299 30.9136 26.3382 30.7664 25.7929 30.537C25.2468 30.3076 24.7987 29.9968 24.4499 29.6035C24.0998 29.2102 23.7994 28.6427 23.549 27.9001C23.2974 27.1576 23.1723 26.2841 23.1723 25.2792V18.9891H20.6827V15.0255H23.1723V10.3408H28.1841V15.0255H31.7552V18.9891H28.1841V24.2306C28.1841 25.3014 28.3694 26.0162 28.7413 26.3769C29.1124 26.7369 29.6585 26.9171 30.3792 26.9171ZM34.9983 30.816V15.0264H40.0105V18.3351C40.2724 17.1997 40.8133 16.3206 41.6321 15.6979C42.4509 15.0752 43.3629 14.7644 44.3674 14.7644C44.8916 14.7644 45.3278 14.8085 45.6778 14.895V19.5468C45.0881 19.4813 44.5856 19.4487 44.1709 19.4487C41.3972 19.4487 40.0105 21.2069 40.0105 24.7228V30.816H34.9983ZM73.0315 30.816L66.2179 15.0264H71.7539L75.2917 24.9526L78.8298 15.0264H84.3992L77.5527 30.816H73.0315ZM104.055 7.885H109.067V30.816H104.055V7.885ZM123.71 25.9017C123.055 26.6883 122.126 27.0812 120.926 27.0812C119.789 27.0812 118.878 26.6934 118.19 25.9179C117.502 25.1432 117.158 24.1443 117.158 22.9207C117.158 21.698 117.502 20.7046 118.19 19.9398C118.878 19.1754 119.789 18.7928 120.926 18.7928C122.126 18.7928 123.055 19.1857 123.71 19.9723C124.365 20.7586 124.692 21.7416 124.692 22.9207C124.692 24.1221 124.365 25.1158 123.71 25.9017ZM114.046 28.9155C115.378 30.4665 117.191 31.2412 119.484 31.2412C120.576 31.2412 121.575 30.9955 122.482 30.5042C123.388 30.0129 124.059 29.3739 124.496 28.5881V30.8154H129.476V15.0257H124.496V17.2859C124.059 16.4564 123.404 15.8012 122.531 15.3206C121.657 14.8404 120.663 14.5998 119.549 14.5998C117.3 14.5998 115.488 15.3861 114.111 16.9585C112.736 18.5309 112.048 20.5184 112.048 22.9207C112.048 25.3671 112.714 27.3653 114.046 28.9155Z" fill="#141416"/>
</g>
<defs>
<clipPath id="clip0_155_8342">
<rect width="130.5" height="31.5" fill="white" transform="translate(0 0.25)"/>
</clipPath>
</defs>
</svg>
